<svg xmlns="http://www.w3.org/2000/svg" viewBox="0 0 200 200">
  <circle cx="100" cy="100" r="96" fill="#FFE2D2"/>
  <circle cx="100" cy="100" r="96" fill="none" stroke="#DD5A1F" stroke-width="6" opacity="0.22"/>
  <circle cx="100" cy="100" r="74" fill="rgba(255,255,255,0.62)"/>
  <g opacity="0.42"><path d="M150 32 C158 43 164 50 164 60 C164 71 157 78 150 78 C143 78 136 71 136 60 C136 52 140 46 145 38 C146 45 149 50 153 54 C154 46 153 39 150 32 Z" fill="#DD5A1F"/><path d="M150 50 C154 56 157 60 157 65 C157 70 154 73 150 73 C146 73 143 70 143 65 C143 61 145 57 148 53 C149 57 151 59 153 61 C153 57 152 53 150 50 Z" fill="white" opacity="0.78"/></g>
  
    <g>
      <rect x="66" y="114" width="68" height="48" rx="24" fill="#FFFDF8" stroke="#1C2F4A" stroke-width="6"/>
      <rect x="88" y="102" width="24" height="18" rx="8" fill="#FFFDF8" stroke="#1C2F4A" stroke-width="6"/>
      <circle cx="100" cy="78" r="30" fill="#FFFDF8" stroke="#1C2F4A" stroke-width="6"/>
      
        <path d="M84 79 L94 82" stroke="#1C2F4A" stroke-width="3" stroke-linecap="round"/>
        <path d="M106 82 L116 79" stroke="#1C2F4A" stroke-width="3" stroke-linecap="round"/>
        <circle cx="92" cy="84" r="2.6" fill="#1C2F4A"/>
        <circle cx="108" cy="84" r="2.6" fill="#1C2F4A"/>
        <path d="M92 96 Q100 90 108 96" stroke="#1C2F4A" stroke-width="3" fill="none" stroke-linecap="round"/>
        
      <g opacity="0.96"><path d="M100 122 C107 131 112 137 112 145 C112 152 106 157 100 157 C94 157 88 152 88 145 C88 137 93 131 100 122 Z" fill="#DD5A1F"/><path d="M100 135 C103 139 105 142 105 146 C105 149 103 151 100 151 C97 151 95 149 95 146 C95 142 97 139 100 135 Z" fill="#FFD7B8"/></g>
    </g>
    
</svg>
