<svg xmlns="http://www.w3.org/2000/svg" viewBox="0 0 200 200">
  <circle cx="100" cy="100" r="96" fill="#E8E3DC"/>
  <circle cx="100" cy="100" r="96" fill="none" stroke="#8E7663" stroke-width="6" opacity="0.22"/>
  <circle cx="100" cy="100" r="74" fill="rgba(255,255,255,0.62)"/>
  <g opacity="0.42"><path d="M28 82 q11-15 22-15 q8 0 13 7" fill="none" stroke="#8E7663" stroke-width="5" stroke-linecap="round"/><path d="M40 100 q8-9 17-9 q6 0 10 4" fill="none" stroke="#8E7663" stroke-width="4" stroke-linecap="round"/><path d="M172 82 q-11-15 -22-15 q-8 0 -13 7" fill="none" stroke="#8E7663" stroke-width="5" stroke-linecap="round"/><path d="M160 100 q-8-9 -17-9 q-6 0 -10 4" fill="none" stroke="#8E7663" stroke-width="4" stroke-linecap="round"/><circle cx="34" cy="70" r="2.3" fill="#8E7663"/><circle cx="166" cy="70" r="2.3" fill="#8E7663"/></g>
  
    <g>
      <rect x="66" y="114" width="68" height="48" rx="24" fill="#FFFDF8" stroke="#1C2F4A" stroke-width="6"/>
      <rect x="88" y="102" width="24" height="18" rx="8" fill="#FFFDF8" stroke="#1C2F4A" stroke-width="6"/>
      <circle cx="100" cy="78" r="30" fill="#FFFDF8" stroke="#1C2F4A" stroke-width="6"/>
      
        <circle cx="90" cy="82" r="3" fill="#1C2F4A"/>
        <circle cx="110" cy="82" r="3" fill="#1C2F4A"/>
        <line x1="92" y1="94" x2="108" y2="94" stroke="#1C2F4A" stroke-width="3" stroke-linecap="round"/>
        
      <g opacity="0.95"><rect x="88" y="130" width="24" height="14" rx="7" fill="white" stroke="#8E7663" stroke-width="4"/><circle cx="96" cy="137" r="2.6" fill="#8E7663"/><circle cx="104" cy="137" r="2.6" fill="#8E7663" opacity="0.6"/><circle cx="112" cy="137" r="2.6" fill="#8E7663" opacity="0.3"/></g>
    </g>
    
</svg>
