<svg xmlns="http://www.w3.org/2000/svg" viewBox="0 0 200 200">
  <circle cx="100" cy="100" r="96" fill="#E6F0F4"/>
  <circle cx="100" cy="100" r="96" fill="none" stroke="#5E8FA8" stroke-width="6" opacity="0.22"/>
  <circle cx="100" cy="100" r="74" fill="rgba(255,255,255,0.62)"/>
  <circle cx="142" cy="52" r="6" fill="#5E8FA8" opacity="0.28"/><circle cx="156" cy="60" r="5" fill="#5E8FA8" opacity="0.22"/><circle cx="166" cy="74" r="4" fill="#5E8FA8" opacity="0.18"/><circle cx="172" cy="88" r="3" fill="#5E8FA8" opacity="0.14"/><circle cx="174" cy="102" r="2.5" fill="#5E8FA8" opacity="0.1"/><path d="M132 44 q12 6 12 18 q0 12-12 18" fill="none" stroke="#5E8FA8" stroke-width="6" opacity="0.2" stroke-linecap="round"/>
  
    <g>
      <rect x="66" y="114" width="68" height="48" rx="24" fill="#FFFDF8" stroke="#1C2F4A" stroke-width="6"/>
      <rect x="88" y="102" width="24" height="18" rx="8" fill="#FFFDF8" stroke="#1C2F4A" stroke-width="6"/>
      <circle cx="100" cy="78" r="30" fill="#FFFDF8" stroke="#1C2F4A" stroke-width="6"/>
      
        <circle cx="90" cy="82" r="3" fill="#1C2F4A"/>
        <circle cx="110" cy="82" r="3" fill="#1C2F4A"/>
        <line x1="92" y1="94" x2="108" y2="94" stroke="#1C2F4A" stroke-width="3" stroke-linecap="round"/>
        
      <g opacity="0.9"><circle cx="94" cy="136" r="3" fill="#5E8FA8" opacity="0.8"/><circle cx="102" cy="132" r="2.6" fill="#5E8FA8" opacity="0.55"/><circle cx="110" cy="128" r="2.2" fill="#5E8FA8" opacity="0.35"/></g>
    </g>
    
</svg>
