<svg xmlns="http://www.w3.org/2000/svg" viewBox="0 0 200 200">
  <circle cx="100" cy="100" r="96" fill="#FFE7D6"/>
  <circle cx="100" cy="100" r="96" fill="none" stroke="#F97316" stroke-width="6" opacity="0.22"/>
  <circle cx="100" cy="100" r="74" fill="rgba(255,255,255,0.62)"/>
  <g opacity="0.42"><circle cx="150" cy="56" r="15" fill="#F97316"/><circle cx="150" cy="56" r="11" fill="white" opacity="0.16"/><line x1="138" y1="41" x2="132" y2="48" stroke="#F97316" stroke-width="4" stroke-linecap="round"/><line x1="162" y1="41" x2="168" y2="48" stroke="#F97316" stroke-width="4" stroke-linecap="round"/><path d="M150 49 v8 l6 5" stroke="white" stroke-width="4" stroke-linecap="round" stroke-linejoin="round" fill="none"/></g>
  
    <g>
      <rect x="66" y="114" width="68" height="48" rx="24" fill="#FFFDF8" stroke="#1C2F4A" stroke-width="6"/>
      <rect x="88" y="102" width="24" height="18" rx="8" fill="#FFFDF8" stroke="#1C2F4A" stroke-width="6"/>
      <circle cx="100" cy="78" r="30" fill="#FFFDF8" stroke="#1C2F4A" stroke-width="6"/>
      
        <circle cx="90" cy="82" r="3" fill="#1C2F4A"/>
        <circle cx="110" cy="82" r="3" fill="#1C2F4A"/>
        <path d="M92 94 Q100 99 108 94" stroke="#1C2F4A" stroke-width="3" fill="none" stroke-linecap="round"/>
        
      <g opacity="0.94"><circle cx="100" cy="137" r="10" fill="white" stroke="#F97316" stroke-width="4"/><path d="M100 132 v6 l4 3" stroke="#F97316" stroke-width="3.5" stroke-linecap="round" stroke-linejoin="round" fill="none"/></g>
    </g>
    
</svg>
