<svg xmlns="http://www.w3.org/2000/svg" viewBox="0 0 200 200">
  <circle cx="100" cy="100" r="96" fill="#E5E8EE"/>
  <circle cx="100" cy="100" r="96" fill="none" stroke="#5F6777" stroke-width="6" opacity="0.22"/>
  <circle cx="100" cy="100" r="74" fill="rgba(255,255,255,0.62)"/>
  <g opacity="0.42"><rect x="134" y="44" width="30" height="26" rx="6" fill="#5F6777"/><path d="M142 52 a10 10 0 0 1 14-2" fill="none" stroke="white" stroke-width="3.5" stroke-linecap="round"/><path d="M156 62 a10 10 0 0 1-14 2" fill="none" stroke="white" stroke-width="3.5" stroke-linecap="round"/><text x="149" y="60" text-anchor="middle" font-family="Arial, sans-serif" font-size="9.5" font-weight="800" fill="white">404</text></g>
  
    <g>
      <rect x="66" y="114" width="68" height="48" rx="24" fill="#FFFDF8" stroke="#1C2F4A" stroke-width="6"/>
      <rect x="88" y="102" width="24" height="18" rx="8" fill="#FFFDF8" stroke="#1C2F4A" stroke-width="6"/>
      <circle cx="100" cy="78" r="30" fill="#FFFDF8" stroke="#1C2F4A" stroke-width="6"/>
      
        <circle cx="90" cy="82" r="3" fill="#1C2F4A"/>
        <circle cx="110" cy="82" r="3" fill="#1C2F4A"/>
        <line x1="92" y1="94" x2="108" y2="94" stroke="#1C2F4A" stroke-width="3" stroke-linecap="round"/>
        
      <g opacity="0.94"><path d="M86 132 h24 l7 7 v12 H86 z" fill="white" stroke="#5F6777" stroke-width="4" stroke-linejoin="round"/><path d="M92 141 h12" stroke="#5F6777" stroke-width="3.5" stroke-linecap="round"/><path d="M104 141 q4-3 7-7" fill="none" stroke="#5F6777" stroke-width="3.5" stroke-linecap="round"/><path d="M104 141 q4 3 7 7" fill="none" stroke="#5F6777" stroke-width="3.5" stroke-linecap="round"/></g>
    </g>
    
</svg>
