<svg xmlns="http://www.w3.org/2000/svg" viewBox="0 0 200 200">
  <circle cx="100" cy="100" r="96" fill="#E6EDF2"/>
  <circle cx="100" cy="100" r="96" fill="none" stroke="#60758A" stroke-width="6" opacity="0.22"/>
  <circle cx="100" cy="100" r="74" fill="rgba(255,255,255,0.62)"/>
  <g opacity="0.42"><rect x="134" y="42" width="34" height="24" rx="6" fill="#60758A"/><rect x="140" y="48" width="18" height="4" rx="2" fill="white"/><rect x="140" y="56" width="12" height="4" rx="2" fill="white"/><path d="M151 66 v8" stroke="#60758A" stroke-width="4" stroke-linecap="round"/></g>
  
    <g>
      <rect x="66" y="114" width="68" height="48" rx="24" fill="#FFFDF8" stroke="#1C2F4A" stroke-width="6"/>
      <rect x="88" y="102" width="24" height="18" rx="8" fill="#FFFDF8" stroke="#1C2F4A" stroke-width="6"/>
      <circle cx="100" cy="78" r="30" fill="#FFFDF8" stroke="#1C2F4A" stroke-width="6"/>
      
        <circle cx="90" cy="82" r="3" fill="#1C2F4A"/>
        <circle cx="110" cy="82" r="3" fill="#1C2F4A"/>
        <path d="M92 94 Q100 99 108 94" stroke="#1C2F4A" stroke-width="3" fill="none" stroke-linecap="round"/>
        
      <g opacity="0.94"><rect x="88" y="130" width="24" height="14" rx="4" fill="white" stroke="#60758A" stroke-width="4"/><rect x="94" y="135" width="12" height="3.5" rx="1.75" fill="#60758A" opacity="0.85"/></g>
    </g>
    
</svg>
