<svg xmlns="http://www.w3.org/2000/svg" viewBox="0 0 200 200">
  <circle cx="100" cy="100" r="96" fill="#FFD8DE"/>
  <circle cx="100" cy="100" r="96" fill="none" stroke="#D64562" stroke-width="6" opacity="0.22"/>
  <circle cx="100" cy="100" r="74" fill="rgba(255,255,255,0.62)"/>
  <g opacity="0.42"><path d="M150 38 l5 10 l11-4 l-4 11 l10 5 l-10 3 l3 11 l-10-5 l-5 10 l-5-10 l-10 5 l3-11 l-10-3 l10-5 l-4-11 l11 4 z" fill="#D64562"/><path d="M150 48 v10" stroke="white" stroke-width="4" stroke-linecap="round"/><circle cx="150" cy="64" r="2.6" fill="white"/></g>
  
    <g>
      <rect x="66" y="114" width="68" height="48" rx="24" fill="#FFFDF8" stroke="#1C2F4A" stroke-width="6"/>
      <rect x="88" y="102" width="24" height="18" rx="8" fill="#FFFDF8" stroke="#1C2F4A" stroke-width="6"/>
      <circle cx="100" cy="78" r="30" fill="#FFFDF8" stroke="#1C2F4A" stroke-width="6"/>
      
        <path d="M84 79 L94 82" stroke="#1C2F4A" stroke-width="3" stroke-linecap="round"/>
        <path d="M106 82 L116 79" stroke="#1C2F4A" stroke-width="3" stroke-linecap="round"/>
        <circle cx="92" cy="84" r="2.6" fill="#1C2F4A"/>
        <circle cx="108" cy="84" r="2.6" fill="#1C2F4A"/>
        <path d="M92 96 Q100 90 108 96" stroke="#1C2F4A" stroke-width="3" fill="none" stroke-linecap="round"/>
        
      
    </g>
    
</svg>
