<svg xmlns="http://www.w3.org/2000/svg" viewBox="0 0 200 200">
  <circle cx="100" cy="100" r="96" fill="#DDF3EE"/>
  <circle cx="100" cy="100" r="96" fill="none" stroke="#14967F" stroke-width="6" opacity="0.22"/>
  <circle cx="100" cy="100" r="74" fill="rgba(255,255,255,0.62)"/>
  <g opacity="0.42"><rect x="134" y="42" width="34" height="22" rx="6" fill="#14967F"/><rect x="168" y="48" width="4" height="10" rx="2" fill="#14967F"/><rect x="140" y="48" width="7" height="10" rx="2" fill="white"/><path d="M150 58 q5-6 10 0" stroke="white" stroke-width="3.5" fill="none" stroke-linecap="round"/></g>
  
    <g>
      <rect x="66" y="114" width="68" height="48" rx="24" fill="#FFFDF8" stroke="#1C2F4A" stroke-width="6"/>
      <rect x="88" y="102" width="24" height="18" rx="8" fill="#FFFDF8" stroke="#1C2F4A" stroke-width="6"/>
      <circle cx="100" cy="78" r="30" fill="#FFFDF8" stroke="#1C2F4A" stroke-width="6"/>
      
        <circle cx="90" cy="82" r="3" fill="#1C2F4A"/>
        <circle cx="110" cy="82" r="3" fill="#1C2F4A"/>
        <path d="M92 94 Q100 99 108 94" stroke="#1C2F4A" stroke-width="3" fill="none" stroke-linecap="round"/>
        
      <g opacity="0.94"><path d="M88 138 q12-12 24 0" stroke="#14967F" stroke-width="4.5" fill="none" stroke-linecap="round"/><path d="M92 145 q8-8 16 0" stroke="#14967F" stroke-width="4" fill="none" stroke-linecap="round"/><circle cx="100" cy="147" r="2.6" fill="#14967F"/></g>
    </g>
    
</svg>
