<svg xmlns="http://www.w3.org/2000/svg" viewBox="0 0 200 200">
  <circle cx="100" cy="100" r="96" fill="#FFE2BF"/>
  <circle cx="100" cy="100" r="96" fill="none" stroke="#F59E0B" stroke-width="6" opacity="0.22"/>
  <circle cx="100" cy="100" r="74" fill="rgba(255,255,255,0.62)"/>
  <g opacity="0.42"><path d="M138 58 l22-12 v24 z" fill="#F59E0B"/><rect x="126" y="52" width="14" height="12" rx="6" fill="#F59E0B"/><path d="M162 48 l10-6 M166 58 h12 M162 68 l10 6" stroke="#F59E0B" stroke-width="4" stroke-linecap="round"/></g>
  
    <g>
      <rect x="66" y="114" width="68" height="48" rx="24" fill="#FFFDF8" stroke="#1C2F4A" stroke-width="6"/>
      <rect x="88" y="102" width="24" height="18" rx="8" fill="#FFFDF8" stroke="#1C2F4A" stroke-width="6"/>
      <circle cx="100" cy="78" r="30" fill="#FFFDF8" stroke="#1C2F4A" stroke-width="6"/>
      
        <circle cx="90" cy="82" r="3" fill="#1C2F4A"/>
        <circle cx="110" cy="82" r="3" fill="#1C2F4A"/>
        <circle cx="100" cy="94" r="6" fill="none" stroke="#1C2F4A" stroke-width="3"/>
        
      <g opacity="0.94"><path d="M90 138 h20" stroke="#F59E0B" stroke-width="5" stroke-linecap="round"/><path d="M112 132 l8 6 l-8 6" stroke="#F59E0B" stroke-width="4" stroke-linecap="round" stroke-linejoin="round" fill="none"/></g>
    </g>
    
</svg>
